{"title":"DynCh-1420-03.asf","uid":6860144,"size":128578148,"categoryP":"porn","categoryS":"other","magnet":"?xt=urn:btih:f58644658595f3e6d19c79a1418bcf696644db2f&amp;dn=DynCh-1420-03.asf&amp;tr=udp%3A%2F%2Ftracker.openbittorrent.com%3A80&amp;tr=udp%3A%2F%2Fopen.demonii.com%3A1337&amp;tr=udp%3A%2F%2Ftracker.coppersurfer.tk%3A6969&amp;tr=udp%3A%2F%2Fexodus.desync.com%3A6969","seeders":0,"leechers":0,"uploader":"mop27","files":1,"time":1322858387,"description":"1420-03\n\nDynamite Channel - Japanese Gravure Idols -  DynCh-1420-03.asf\n\nGeneral\nComplete name                  : C:\\uTorrent\\READY\\DynCh-1420-03.asf\nFormat                         : Windows Media\nFile size                      : 123 MiB\nDuration                       : 16mn 53s\nOverall bit rate mode          : Constant\nOverall bit rate               : 1 015 Kbps\nMaximum Overall bit rate       : 1 028 Kbps\nEncoded date                   : UTC 2008-07-31 21:40:18.500\n\nVideo\nID                             : 2\nFormat                         : VC-1\nFormat profile                 : MP@ML\nCodec ID                       : WMV3\nCodec ID/Info                  : Windows Media Video 9\nCodec ID/Hint                  : WMV3\nDescription of the codec       : Windows Media Video 9\nDuration                       : 16mn 53s\nBit rate mode                  : Constant\nBit rate                       : 1 000 Kbps\nWidth                          : 640 pixels\nHeight                         : 480 pixels\nDisplay aspect ratio           : 4:3\nFrame rate                     : 29.970 fps\nBit depth                      : 8 bits\nScan type                      : Progressive\nCompression mode               : Lossy\nBits/(Pixel*Frame)             : 0.109\nStream size                    : 121 MiB (99%)\nNumberOfFrames                 : 30369\n\nAudio\nID                             : 1\nFormat                         : WMA\nFormat version                 : Version 2\nCodec ID                       : 161\nCodec ID/Info                  : Windows Media Audio\nDescription of the codec       : Windows Media Audio 9.2 -  16 kbps, 16 kHz, stereo 2-pass CBR\nDuration                       : 16mn 53s\nBit rate mode                  : Constant\nBit rate                       : 16.0 Kbps\nChannel(s)                     : 2 channels\nSampling rate                  : 16.0 KHz\nBit depth                      : 16 bits\nStream size                    : 1.93 MiB (2%)","torrent":{"xt":"urn:btih:f58644658595f3e6d19c79a1418bcf696644db2f","amp;dn":"DynCh-1420-03.asf","amp;tr":["udp%3A%2F%2Ftracker.openbittorrent.com%3A80","udp%3A%2F%2Fopen.demonii.com%3A1337","udp%3A%2F%2Ftracker.coppersurfer.tk%3A6969","udp%3A%2F%2Fexodus.desync.com%3A6969"],"infoHash":"f58644658595f3e6d19c79a1418bcf696644db2f","infoHashBuffer":{"type":"Buffer","data":[245,134,68,101,133,149,243,230,209,156,121,161,65,139,207,105,102,68,219,47]},"announce":[],"urlList":[]}}